Coordinates
version=1
nRows=17
nColumns=38
inDegrees=no

Units are S.I. units (second, meters, Newtons, ...)
If the header above contains a line with 'inDegrees', this indicates whether rotational values are in degrees (yes) or radians (no).

endheader
time	pelvis_tilt	pelvis_list	pelvis_rotation	pelvis_tx	pelvis_ty	pelvis_tz	hip_flexion_r	hip_adduction_r	hip_rotation_r	knee_angle_r	ankle_angle_r	subtalar_angle_r	mtp_angle_r	hip_flexion_l	hip_adduction_l	hip_rotation_l	knee_angle_l	ankle_angle_l	subtalar_angle_l	mtp_angle_l	lumbar_extension	lumbar_bending	lumbar_rotation	arm_flex_r	arm_add_r	arm_rot_r	elbow_flex_r	pro_sup_r	wrist_flex_r	wrist_dev_r	arm_flex_l	arm_add_l	arm_rot_l	elbow_flex_l	pro_sup_l	wrist_flex_l	wrist_dev_l
0.72	2.96816	1.47645	-1.29764	0.655238	0.0949335	0.954565	0.196721	-0.144543	-0.125424	1.3225	-0.421787	0	0	-0.0234239	-0.0155875	-0.202731	0.326146	-0.270854	0	0	-0.136797	0.0286644	-0.0786784	-0.00752617	-0.29831	0.401872	0.700302	1.55402	0	0	-0.000686679	-0.262101	0.450811	0.685243	1.5708	0	0
0.73	2.91334	1.47891	-1.24277	0.654425	0.104059	0.955091	0.226984	-0.142225	-0.124171	1.32169	-0.411522	0	0	-0.0345035	-0.0194865	-0.200415	0.317717	-0.267978	0	0	-0.132733	0.0343461	-0.082418	-0.0149967	-0.3009	0.392633	0.702053	1.54798	0	0	0.00860442	-0.265024	0.45016	0.698505	1.5708	0	0
0.74	2.86143	1.47913	-1.18928	0.653468	0.112951	0.955644	0.253291	-0.139884	-0.125276	1.31576	-0.401131	0	0	-0.0468557	-0.0239025	-0.195734	0.30964	-0.265617	0	0	-0.131344	0.0405455	-0.0874905	-0.0216827	-0.304028	0.383494	0.704839	1.54141	0	0	0.0186118	-0.268135	0.448809	0.711787	1.5708	0	0
0.75	2.80845	1.47963	-1.1357	0.652743	0.121756	0.956024	0.279412	-0.13671	-0.125058	1.30629	-0.388854	0	0	-0.0584709	-0.0286378	-0.191924	0.301649	-0.263032	0	0	-0.129928	0.046482	-0.0914374	-0.0283178	-0.306969	0.373256	0.708429	1.53313	0	0	0.028514	-0.270644	0.445262	0.725171	1.5708	0	0
0.76	2.7624	1.47994	-1.08855	0.651875	0.130447	0.956315	0.303837	-0.134524	-0.125752	1.29235	-0.375676	0	0	-0.070015	-0.0324544	-0.188272	0.294274	-0.26053	0	0	-0.128979	0.0522166	-0.0959515	-0.0342212	-0.310168	0.363251	0.712014	1.52407	0	0	0.0387916	-0.27204	0.44018	0.737269	1.5708	0	0
0.77	2.72038	1.48135	-1.04545	0.651011	0.13914	0.95637	0.327769	-0.131769	-0.124099	1.27467	-0.359806	0	0	-0.0807195	-0.0349537	-0.185117	0.287232	-0.257581	0	0	-0.127211	0.0569253	-0.100626	-0.0396259	-0.313146	0.353653	0.715264	1.51428	0	0	0.048544	-0.273416	0.433917	0.74904	1.5708	0	0
0.78	2.68284	1.48268	-1.00634	0.650135	0.14798	0.956328	0.34951	-0.132889	-0.128858	1.25375	-0.344221	0	0	-0.092156	-0.0368897	-0.182692	0.279861	-0.254345	0	0	-0.125397	0.0611866	-0.105747	-0.0448281	-0.31585	0.344434	0.718039	1.50378	0	0	0.057655	-0.274453	0.426242	0.760447	1.5708	0	0
0.79	2.67374	1.4847	-0.994289	0.649055	0.156955	0.95598	0.368647	-0.137854	-0.135277	1.2308	-0.328082	0	0	-0.104774	-0.0357969	-0.179708	0.27183	-0.251033	0	0	-0.123905	0.0628444	-0.112329	-0.0507508	-0.31925	0.336917	0.722454	1.49386	0	0	0.0656091	-0.276177	0.41787	0.773315	1.5708	0	0
0.8	2.65041	1.486	-0.96936	0.648383	0.165511	0.955634	0.386512	-0.13885	-0.138541	1.20279	-0.314564	0	0	-0.116734	-0.0364736	-0.175706	0.264199	-0.247592	0	0	-0.1236	0.0657487	-0.117473	-0.0541555	-0.32205	0.330865	0.725108	1.48373	0	0	0.0748764	-0.277354	0.409054	0.784501	1.5708	0	0
0.81	2.62286	1.48813	-0.941141	0.647934	0.174215	0.955089	0.403455	-0.139176	-0.140064	1.17051	-0.304157	0	0	-0.128011	-0.0372074	-0.172948	0.256444	-0.244277	0	0	-0.122184	0.0679768	-0.121704	-0.0569883	-0.324343	0.325803	0.726683	1.4737	0	0	0.0833686	-0.278981	0.400206	0.795316	1.5708	0	0
0.82	2.59057	1.49081	-0.908604	0.647658	0.182972	0.954439	0.418961	-0.138667	-0.140451	1.13418	-0.295904	0	0	-0.138466	-0.038138	-0.170546	0.248997	-0.241122	0	0	-0.120006	0.0698143	-0.125414	-0.0590273	-0.326342	0.322225	0.726962	1.46483	0	0	0.0917851	-0.280541	0.391837	0.80499	1.5708	0	0
0.83	2.5609	1.49436	-0.8788	0.647392	0.191822	0.953616	0.433109	-0.13892	-0.141255	1.09537	-0.288692	0	0	-0.148303	-0.0381811	-0.168531	0.241758	-0.238045	0	0	-0.117071	0.0707206	-0.128849	-0.0608772	-0.328582	0.320107	0.726759	1.45778	0	0	0.0999862	-0.281702	0.383737	0.81368	1.5708	0	0
0.84	2.53531	1.49891	-0.852823	0.647149	0.200686	0.952557	0.446132	-0.140624	-0.143083	1.05445	-0.28244	0	0	-0.156929	-0.0373182	-0.166154	0.235933	-0.234597	0	0	-0.113504	0.0704758	-0.132484	-0.0624283	-0.330701	0.318887	0.726408	1.45219	0	0	0.107776	-0.282937	0.375924	0.822092	1.5708	0	0
0.85	2.50566	1.50429	-0.822777	0.646966	0.209559	0.951279	0.458167	-0.142756	-0.145634	1.01155	-0.27583	0	0	-0.164197	-0.036065	-0.163498	0.231371	-0.230975	0	0	-0.109219	0.0695293	-0.136086	-0.0633552	-0.332307	0.318095	0.725178	1.44758	0	0	0.115216	-0.284209	0.368429	0.829965	1.5708	0	0
0.86	2.46487	1.51047	-0.781878	0.646821	0.218463	0.949767	0.469255	-0.144734	-0.148614	0.967017	-0.266387	0	0	-0.170344	-0.0341115	-0.161169	0.226682	-0.227247	0	0	-0.103951	0.0682171	-0.139294	-0.0640044	-0.333788	0.317781	0.723522	1.44413	0	0	0.122292	-0.285321	0.36145	0.837272	1.5708	0	0
0.87	2.41217	1.51721	-0.729174	0.646731	0.227448	0.948084	0.478829	-0.1467	-0.152183	0.920418	-0.252658	0	0	-0.175264	-0.0318306	-0.15942	0.223529	-0.222918	0	0	-0.0979361	0.0664639	-0.142159	-0.064515	-0.334986	0.317708	0.721294	1.4418	0	0	0.128968	-0.286108	0.354766	0.843859	1.5708	0	0
0.88	2.34526	1.52421	-0.662276	0.646702	0.236519	0.946271	0.486468	-0.148682	-0.156087	0.870576	-0.235612	0	0	-0.179254	-0.0293345	-0.158169	0.222401	-0.217652	0	0	-0.0916223	0.0642709	-0.144768	-0.0646288	-0.335671	0.317859	0.718198	1.44048	0	0	0.135194	-0.286729	0.348353	0.849809	1.5708	0	0
